HIERARCHY
ROOT pelvis
{
  OFFSET 0 100 0
  CHANNELS 6 Xposition Yposition Zposition Zrotation Xrotation Yrotation
  JOINT pelvis_right_femur
  {
    OFFSET -10.78128 -3.44521 -0.5502486
    CHANNELS 3 Zrotation Xrotation Yrotation
    JOINT right_femur_tibia
    {
      OFFSET -0.8047443 -44.0398 -0.1307829
      CHANNELS 3 Zrotation Xrotation Yrotation
      JOINT right_tibia_foot
      {
        OFFSET 3.006224 -47.83518 -5
        CHANNELS 3 Zrotation Xrotation Yrotation
        End Site
        {
          OFFSET 0 -5 15
        }
      }
    }
  }
  JOINT pelvis_left_femur
  {
    OFFSET 10.78128 -3.44521 -0.5502486
    CHANNELS 3 Zrotation Xrotation Yrotation
    JOINT left_femur_tibia
    {
      OFFSET 0.8047443 -44.0398 -0.1307829
      CHANNELS 3 Zrotation Xrotation Yrotation
      JOINT left_tibia_foot
      {
        OFFSET -4.370144 -48.10324 -4.275266
        CHANNELS 3 Zrotation Xrotation Yrotation
        End Site
        {
          OFFSET 0 -5 15
        }
      }
    }
  }
  JOINT pelvis_spine1
  {
    OFFSET 0 6.468898 -3.129235
    CHANNELS 3 Zrotation Xrotation Yrotation
    JOINT spine1
    {
      OFFSET 0 23.15396 4.99043
      CHANNELS 3 Zrotation Xrotation Yrotation
      JOINT spine2
      {
        OFFSET 0 20.79997 -5.064912
        CHANNELS 3 Zrotation Xrotation Yrotation
        JOINT neck
        {
          OFFSET 0 14.38658 9.616178
          CHANNELS 3 Zrotation Xrotation Yrotation
          End Site
          {
            OFFSET 0 20 0
          }
        }
      }
      JOINT right_manubrium
      {
        OFFSET -5.722621 16.35077 3.967754
        CHANNELS 3 Zrotation Xrotation Yrotation
        JOINT right_clavicle
        {
          OFFSET -13.16364 1.694482 -4.693211
          CHANNELS 3 Zrotation Xrotation Yrotation
          JOINT right_humerus
          {
            OFFSET -28.5034 -0.3100689 -2.792744
            CHANNELS 3 Zrotation Xrotation Yrotation
            JOINT right_radius
            {
              OFFSET -25.15693 0.02248979 -1.271978
              CHANNELS 3 Zrotation Xrotation Yrotation
              End Site
              {
                OFFSET -15 0 0
              }
            }
          }
        }
      }
      JOINT left_manubrium
      {
        OFFSET 5.722621 16.35077 3.967754
        CHANNELS 3 Zrotation Xrotation Yrotation
        JOINT left_clavicle
        {
          OFFSET 13.16364 1.694482 -4.693211
          CHANNELS 3 Zrotation Xrotation Yrotation
          JOINT left_humerus
          {
            OFFSET 29.39168 -1.063119 -2.237045
            CHANNELS 3 Zrotation Xrotation Yrotation
            JOINT left_radius
            {
              OFFSET 24.59957 -0.9528479 0.9047498
              CHANNELS 3 Zrotation Xrotation Yrotation
              End Site
              {
                OFFSET 15 -0 -0
              }
            }
          }
        }
      }
    }
  }
}
MOTION
Frames: 11
Frame Time: 0.0416666666667
37.48827 103.7552 249.0442 2.373529 -7.117129 4.249777 0.9678473 11.50313 6.135065 3.052785e-06 37.8595 -2.176475e-06 4.919506 -10.61454 -3.465199 -3.954252 -13.34061 -9.710833 2.552747e-06 20.62028 -1.210565e-06 -6.851945 -10.34779 18.40345 -2.044446 -0.64954 7.38655 -0.8767421 9.011362 -3.094112 2.03277 22.15575 6.167279 2.10366 -17.47932 8.222559 1.668063 -20.34222 10.88943 82.58937 22.74268 -9.793134 -2.49356e-07 3.929364e-07 24.05743 -24.86836 12.54617 13.41472 3.878512 -13.71982 -3.018525 -94.7538 25.50135 26.23396 1.071363e-06 -1.052946e-06 -10.46628 -5.490268 5.948718 19.35623
38.94047 104.371 255.1241 2.646149 -7.650262 4.647915 0.4255369 9.275572 6.135486 2.627683e-06 44.68926 -1.922016e-06 4.506522 -9.156029 -4.130178 -4.895215 -10.02938 -10.57154 2.244059e-06 21.59839 -2.199397e-06 -6.310366 -10.87681 18.22802 -2.367451 -0.7473386 6.862356 -0.9544756 9.07298 -3.355751 2.013811 22.50087 6.263802 2.047124 -17.25934 8.390324 1.95434 -19.55885 10.72091 83.23132 23.02657 -10.6362 -2.65725e-07 2.304054e-07 22.65865 -24.22465 12.32904 12.77341 3.577396 -13.85878 -3.255079 -93.51618 26.16792 24.57356 5.995734e-07 -6.570707e-07 -10.69537 -5.14731 6.326649 18.9659
40.33395 105.2378 260.8552 2.886528 -8.253776 5.288613 0.006138997 5.800362 5.960724 2.259619e-06 50.63659 -1.717088e-06 3.978929 -8.422492 -5.075327 -5.587755 -6.223364 -11.22284 1.679129e-06 21.57069 -2.567843e-06 -5.777439 -11.84316 17.83819 -2.6636 -0.6111465 6.152354 -0.9491418 9.090414 -3.792309 1.968369 22.90278 6.331492 1.873459 -16.94163 8.592787 2.154315 -18.75569 10.54265 84.22795 23.35499 -11.67113 -2.96231e-07 2.8536e-08 21.22863 -23.48676 12.25194 12.14603 3.312383 -14.19838 -3.593728 -92.05012 26.92175 22.36786 1.653031e-07 -2.396146e-07 -11.36975 -4.779596 6.707039 18.52747
41.64166 106.2089 266.2034 2.985271 -8.67544 6.114494 -0.13785 1.219517 5.662967 1.119173e-06 54.33239 -7.401605e-07 3.256327 -8.381067 -6.107937 -5.965013 -1.865189 -11.74471 6.58532e-07 20.95494 -3.43436e-06 -5.413017 -12.94788 17.16912 -2.808241 -0.3577912 5.287462 -0.7896066 9.036435 -4.387539 1.901184 23.21552 6.361879 1.629096 -16.66642 8.79435 2.300533 -17.93288 10.35595 85.32213 23.72631 -12.9439 -2.999361e-07 -2.629934e-07 19.70212 -22.40963 12.28005 11.43032 3.14414 -14.72565 -3.938074 -90.3562 27.61889 19.80598 -4.239753e-07 2.357921e-07 -12.46393 -4.302495 7.14935 17.94589
42.86842 107.0459 271.2022 3.007669 -8.84679 7.063786 -0.08154094 -3.645181 5.199231 2.888052e-07 54.90851 1.515874e-08 2.527992 -8.577612 -6.992256 -6.064416 2.079437 -12.09065 -2.930073e-07 19.26219 -3.497839e-06 -5.125601 -14.34722 16.58616 -2.866987 0.01740026 4.443576 -0.5427182 8.921611 -4.963781 1.846139 23.39824 6.395202 1.435866 -16.51605 8.965163 2.305906 -17.23721 10.20344 86.23004 24.00634 -14.11156 -2.97093e-07 -4.60137e-07 18.31408 -21.43321 12.28987 10.84196 3.215601 -15.36025 -4.259535 -88.71831 28.06026 17.2206 -7.656733e-07 5.438552e-07 -13.80162 -3.774093 7.569802 17.24693
44.0204 107.5574 276.0153 2.971725 -8.727922 8.050535 0.111792 -8.423452 4.605086 6.91876e-08 52.13709 2.131265e-07 1.98419 -8.928901 -7.71789 -5.952869 5.674458 -12.2326 -8.672978e-07 16.89625 -2.944396e-06 -5.026054 -15.94762 16.12235 -2.865879 0.3901156 3.673167 -0.224894 8.689114 -5.490762 1.838808 23.46812 6.41341 1.313078 -16.47284 9.096883 2.149027 -16.5908 10.04329 87.01353 24.14784 -15.24251 -2.835371e-07 -5.297725e-07 16.97496 -20.69628 12.29927 10.38313 3.569052 -16.06899 -4.490903 -87.19003 28.24404 14.53325 -7.995518e-07 6.374786e-07 -15.48121 -3.250053 7.92026 16.4764
45.08596 107.6244 280.7545 2.904307 -8.40985 8.991098 0.3797758 -12.88416 3.968593 3.444714e-08 46.74388 2.647072e-07 1.559636 -9.378422 -8.27745 -5.7343 8.956413 -12.27957 -1.150686e-06 14.5569 -2.182623e-06 -5.026756 -17.57735 15.86391 -2.838824 0.7153556 2.990133 0.1388031 8.369192 -5.946047 1.878745 23.47203 6.410037 1.26995 -16.50809 9.177009 1.903512 -15.92682 9.877264 87.60066 24.21939 -16.34752 -2.498853e-07 -5.083678e-07 15.53917 -20.07732 12.24953 9.946461 4.141279 -16.82055 -4.620065 -85.70629 28.22795 11.71907 -7.006058e-07 6.167074e-07 -17.3887 -2.689687 8.270087 15.58784
46.08872 107.2554 285.6929 2.814412 -7.882316 9.818349 0.6471841 -16.4666 3.247486 6.393326e-07 39.59971 -3.73704e-07 1.322877 -9.876376 -8.675862 -5.481609 11.85197 -12.10046 -6.630894e-07 12.86423 -9.602262e-07 -5.25249 -19.01509 15.64943 -2.819193 0.8477336 2.451875 0.5040916 7.926132 -6.33153 1.976908 23.49737 6.355895 1.275847 -16.61449 9.210649 1.536905 -15.23306 9.650257 88.32981 24.23284 -17.48942 -2.27112e-07 -3.561209e-07 14.00887 -19.76016 12.19381 9.594023 4.847306 -17.57393 -4.586576 -84.52772 28.08296 8.929785 -2.567992e-07 3.779711e-07 -19.52863 -2.163697 8.581255 14.69852
46.98063 106.4394 290.6902 2.774168 -7.437453 10.50765 0.846855 -19.56444 2.588119 5.147704e-07 32.27389 -2.652131e-07 0.9025263 -10.6799 -8.942858 -5.273866 14.29688 -12.01093 -5.255401e-07 11.97627 -3.320581e-07 -5.262801 -20.22864 15.68937 -2.841836 0.9792308 1.991952 0.8469436 7.51856 -6.649557 2.056109 23.585 6.287315 1.311785 -16.68674 9.184219 1.261615 -14.50748 9.461466 88.74831 24.40944 -18.52589 -1.899387e-07 -2.626075e-07 12.31642 -19.25167 11.98887 9.104559 5.524883 -18.33204 -4.517793 -83.20376 27.92729 6.066391 -1.52879e-07 3.730807e-07 -21.5989 -1.50512 9.035471 13.62253
47.76217 105.34 295.7751 2.709152 -7.035897 11.05149 1.007991 -21.86808 1.974776 2.637411e-07 26.07228 -1.10818e-07 0.2731894 -11.51417 -9.102951 -5.112804 16.3941 -11.92043 -4.395391e-07 12.35254 -2.46689e-07 -5.328586 -20.92141 15.60793 -2.843187 1.004633 1.596313 1.144644 7.128053 -6.917395 2.12014 23.73746 6.184284 1.324516 -16.76921 9.131347 1.043398 -13.77834 9.248499 89.16052 24.68266 -19.47538 -1.679028e-07 -2.188567e-07 10.57131 -18.61057 11.7071 8.554729 6.030026 -18.98704 -4.38093 -82.01487 27.81664 3.519917 -1.470895e-07 4.598679e-07 -23.35825 -0.7992424 9.554 12.54263
48.46011 104.1831 301.0088 2.588756 -6.735558 11.48063 1.179206 -23.20292 1.538839 -2.227203e-08 22.07112 -6.133138e-08 -0.5454885 -12.25937 -9.260321 -4.970242 18.1906 -11.84145 -3.578001e-07 14.00577 -7.306456e-07 -5.532969 -20.90761 15.28323 -2.787852 0.8940503 1.245714 1.389796 6.788006 -7.158669 2.171288 23.91517 6.021105 1.265766 -16.84352 9.066959 0.9005247 -13.1222 9.000244 89.64272 25.00416 -20.2765 -1.601476e-07 -2.461503e-07 8.971951 -17.81844 11.4486 7.996565 6.243058 -19.43012 -4.190459 -81.10809 27.80576 1.646633 -1.698744e-07 5.664511e-07 -24.4692 -0.164213 10.06813 11.65136
